<?xml version="1.0" encoding="UTF-8" standalone="no"?>
<!-- Created with Inkscape (http://www.inkscape.org/) -->

<svg
   width="128.00002"
   height="127.99999"
   viewBox="0 0 33.866671 33.866665"
   version="1.1"
   id="svg1"
   inkscape:version="1.4.2 (ebf0e940d0, 2025-05-08)"
   sodipodi:docname="random.svg"
   xml:space="preserve"
   xmlns:inkscape="http://www.inkscape.org/namespaces/inkscape"
   xmlns:sodipodi="http://sodipodi.sourceforge.net/DTD/sodipodi-0.dtd"
   xmlns="http://www.w3.org/2000/svg"
   xmlns:svg="http://www.w3.org/2000/svg"><sodipodi:namedview
     id="namedview1"
     pagecolor="#ffffff"
     bordercolor="currentColor"
     borderopacity="0.25"
     inkscape:showpageshadow="2"
     inkscape:pageopacity="0.0"
     inkscape:pagecheckerboard="0"
     inkscape:deskcolor="#d1d1d1"
     inkscape:document-units="px"
     inkscape:zoom="2.8284271"
     inkscape:cx="62.57895"
     inkscape:cy="62.932504"
     inkscape:window-width="1920"
     inkscape:window-height="1095"
     inkscape:window-x="0"
     inkscape:window-y="0"
     inkscape:window-maximized="1"
     inkscape:current-layer="layer1" /><defs
     id="defs1" /><g
     inkscape:groupmode="layer"
     id="layer1"
     inkscape:label="icon"><path
       style="fill:#8327c6;fill-opacity:1;stroke:#000000;stroke-width:1.01812;stroke-linecap:round;stroke-linejoin:round;stroke-dasharray:none"
       d="m 23.887034,8.3267088 c -3.900017,0 -10.239963,2.7496192 -5.379139,6.8852992 1.287314,-2.418218 2.630789,-3.442346 5.379139,-3.44265 0,0.805322 -0.33672,2.732752 0.523636,3.198264 0.620594,0.335784 1.389168,-0.326751 1.843186,-0.678701 1.032283,-0.800218 4.381676,-2.823904 4.381676,-4.240887 0,-1.4169922 -3.349391,-3.4406682 -4.381676,-4.2408872 -0.45402,-0.351953 -1.222591,-1.014486 -1.843186,-0.678701 -0.860351,0.465508 -0.523636,2.392944 -0.523636,3.198263 m -20.6558952,0 v 3.4426492 c 2.1177214,0 5.0813462,-0.559382 6.8766652,0.782799 4.114158,3.075746 4.491261,10.101649 9.475919,12.362889 1.386842,0.629125 2.81495,0.62491 4.303311,0.62491 0,0.805321 -0.33672,2.732752 0.523636,3.198263 0.620595,0.335786 1.389168,-0.32675 1.843186,-0.678701 1.032283,-0.800217 4.381676,-2.823902 4.381676,-4.240887 0,-1.416986 -3.349393,-3.440669 -4.381676,-4.240887 -0.45402,-0.351952 -1.222592,-1.014485 -1.843186,-0.678701 -0.860352,0.46551 -0.523636,2.392942 -0.523636,3.198263 C 17.906205,22.096647 16.667732,14.169051 13.108666,10.486998 10.46801,7.7550918 6.6895473,8.3267088 3.2311388,8.3267088 M 12.052927,18.654657 c -2.0691038,3.886811 -4.9133877,3.442649 -8.8217882,3.442649 v 3.44265 c 2.4260456,0 5.2385356,0.40423 7.5307952,-0.532602 3.251692,-1.328945 4.049437,-4.005755 1.290993,-6.352697 z"
       id="path13" /></g></svg>
